<svg xmlns="http://www.w3.org/2000/svg" viewBox="0 0 512 512" width="512" height="512">
  <defs>
    <!-- Premium Gold Gradient -->
    <linearGradient id="goldGrad" x1="0%" y1="0%" x2="100%" y2="100%">
      <stop offset="0%" stop-color="#f5e1b9" />
      <stop offset="50%" stop-color="#ddb46a" />
      <stop offset="100%" stop-color="#b58a3c" />
    </linearGradient>
    <!-- Elegant Rose Gold Gradient -->
    <linearGradient id="roseGoldGrad" x1="0%" y1="0%" x2="100%" y2="100%">
      <stop offset="0%" stop-color="#eac5bc" />
      <stop offset="100%" stop-color="#b37a70" />
    </linearGradient>
  </defs>

  <!-- Background Squircle -->
  <rect width="512" height="512" rx="140" fill="#1e1a19" />

  <!-- Shopping Bag Handle -->
  <!-- Arc from 196 to 316, height up to 140 -->
  <path d="M 196 205 A 60 60 0 0 1 316 205" fill="none" stroke="url(#goldGrad)" stroke-width="28" stroke-linecap="round" />

  <!-- Outer Bag Body -->
  <!-- Trapezoid path with rounded bottom corners -->
  <path d="M 152 205 L 360 205 C 363 205 365 207 366 210 L 391 405 C 393 420 380 432 365 432 L 147 432 C 132 432 119 420 121 405 L 146 210 C 147 207 149 205 152 205 Z" 
        fill="none" stroke="url(#goldGrad)" stroke-width="8" stroke-linejoin="round" />

  <!-- Inner Bag Body (Rose Gold, slightly inset) -->
  <!-- Inset path matching the outer shape -->
  <path d="M 166 220 L 346 220 C 348 220 349 221 350 223 L 373 395 C 374 405 366 414 355 414 L 157 414 C 146 414 138 405 139 395 L 162 223 C 163 221 164 220 166 220 Z" 
        fill="#1e1a19" stroke="url(#roseGoldGrad)" stroke-width="4" stroke-linejoin="round" />

  <!-- Centered thin gold "A" -->
  <path d="M 256 250 L 208 365" fill="none" stroke="url(#goldGrad)" stroke-width="6" stroke-linecap="round" />
  <path d="M 256 250 L 304 365" fill="none" stroke="url(#goldGrad)" stroke-width="6" stroke-linecap="round" />
  <path d="M 224 326 L 288 326" fill="none" stroke="url(#goldGrad)" stroke-width="6" stroke-linecap="round" />

  <!-- Sparkle Star on the right -->
  <path d="M 335 265 Q 335 277 347 277 Q 335 277 335 289 Q 335 277 323 277 Q 335 277 335 265 Z" fill="url(#goldGrad)" />
</svg>
